<svg width="800" height="800" viewBox="0 0 800 800" fill="none" xmlns="http://www.w3.org/2000/svg">
<g clip-path="url(#clip0_1_2)">
<path d="M100 363.707C100 360.607 100 359.057 100.019 357.677C101.283 266.007 164.713 186.934 253.926 165.814C255.268 165.497 256.781 165.16 259.808 164.488C262.596 163.868 263.989 163.558 265.37 163.258C354.087 143.958 445.913 143.958 534.63 163.258C536.01 163.558 537.403 163.868 540.19 164.488C543.22 165.16 544.733 165.497 546.073 165.814C635.287 186.934 698.717 266.007 699.98 357.677C700 359.057 700 360.607 700 363.707V545.84C700 616.437 650.967 677.563 582.05 692.88C462.147 719.523 337.853 719.523 217.951 692.88C149.034 677.563 100 616.437 100 545.84V363.707Z" stroke="#1C274D" stroke-width="50"/>
<path opacity="0.5" d="M583.333 516.667V566.667" stroke="#1C274D" stroke-width="50" stroke-linecap="round"/>
<path opacity="0.5" d="M531.95 150C524.017 102.705 482.883 66.6667 433.333 66.6667H366.667C317.118 66.6667 275.985 102.705 268.05 150" stroke="#1C274D" stroke-width="50" stroke-linecap="round"/>
<path d="M100 466.667C290.993 551.553 509.007 551.553 700 466.667" stroke="#1C274D" stroke-width="50" stroke-linecap="round"/>
<path opacity="0.5" d="M333.333 433.333H466.667" stroke="#1C274D" stroke-width="50" stroke-linecap="round"/>
</g>
<defs>
<clipPath id="clip0_1_2">
<rect width="800" height="800" fill="white"/>
</clipPath>
</defs>
</svg>
